<svg width="360" height="160" viewBox="0 0 360 160" fill="none" xmlns="http://www.w3.org/2000/svg">
<rect width="360" height="160" fill="black"/>
<path d="M47.0317 84.9735C47.0325 85.1334 46.9298 85.2764 46.7771 85.3265L42.7764 86.6449C42.7497 86.6538 42.723 86.6594 42.6963 86.6618C42.4854 86.6828 42.2906 86.518 42.289 86.2943L42.1961 67.9507V67.8966L42.1144 51.8199C42.1128 51.5533 41.8396 51.3755 41.5955 51.4814L31.5169 55.8485C31.272 55.9544 30.998 55.775 30.998 55.5084V52.391C30.998 52.2626 31.0643 52.1438 31.1734 52.0759L46.3261 42.6695C46.5726 42.5168 46.8919 42.6929 46.8927 42.9837L46.9694 66.2712V66.2834L47.0107 78.6198L47.0317 84.9735Z" fill="white"/>
<path d="M57.8189 81.9388L53.9281 83.1886C53.7494 83.2459 53.566 83.1134 53.5652 82.9252L53.4803 64.3571V64.3547L53.3809 42.3468C53.3768 41.3733 53.962 40.475 54.8769 40.1414C55.1275 40.0501 55.3966 40 55.6754 40C56.0739 40 56.453 40.1018 56.7859 40.2819C57.5287 40.6842 57.9716 41.4816 57.9724 42.3258C57.9797 49.2909 57.987 56.2577 57.9934 63.2229V63.2487C57.9999 69.3899 58.0064 75.5327 58.0128 81.6739C58.0112 81.795 57.9336 81.9017 57.8189 81.9388Z" fill="#FC6E27"/>
<path d="M53.3848 117.912C53.3767 119.177 54.3005 120.235 55.4878 120.3C55.5493 120.303 55.6115 120.304 55.6737 120.304C55.7683 120.304 55.8612 120.3 55.9534 120.293C57.0986 120.199 57.9699 119.156 57.9723 117.934C57.9844 109.839 57.9966 101.743 58.0087 93.6474C58.0103 92.5197 57.2659 91.5462 56.2282 91.3192C54.8501 91.0171 53.557 92.1303 53.5473 93.6272L53.3848 117.912Z" fill="#FC6E27"/>
<path d="M80.5746 102.717C80.5705 103.33 80.4735 104.404 79.9191 105.595C79.3081 106.904 78.4619 107.74 77.9503 108.102C73.8517 110.998 69.4259 113.398 65.1431 116.016C64.8958 116.167 64.5781 115.99 64.5781 115.7V88.4839C66.1703 87.912 67.7165 87.3174 69.2117 86.7043V107.007C69.2117 107.281 69.5002 107.461 69.7467 107.34L75.5506 104.495C75.6759 104.434 75.7559 104.309 75.7583 104.17L76.0711 88.4395L76.1681 83.5367L76.1722 83.3501C76.1778 83.1013 76.4211 82.9284 76.6571 83.0044L76.9941 83.1126L80.3111 84.179C80.4638 84.2282 80.5681 84.3696 80.5681 84.5304C80.5689 84.8551 80.5705 85.4602 80.5713 86.2616C80.5802 90.2668 80.5956 99.1894 80.5746 102.717Z" fill="white"/>
<path d="M47.3309 93.2793V115.699C47.3309 115.989 47.0133 116.166 46.7659 116.015C42.4831 113.398 38.0573 110.997 33.9588 108.101C33.4472 107.74 32.6009 106.903 31.9899 105.594C31.4355 104.403 31.3385 103.329 31.3353 102.716C31.3304 101.944 31.3272 100.913 31.3256 99.7307C31.3239 98.3218 31.3239 96.6997 31.3247 95.0468C32.7973 95.042 34.3483 94.9798 35.9656 94.861L36.0553 99.3874L36.1507 104.169C36.1539 104.308 36.2339 104.433 36.3584 104.494L42.1631 107.339C42.4096 107.46 42.6973 107.281 42.6973 107.006V94.0928C44.2071 93.8634 45.754 93.5919 47.3309 93.2793Z" fill="white"/>
<path d="M80.5559 85.8255C79.1205 86.5655 77.618 87.2926 76.0557 88.0043C73.88 88.9938 71.5879 89.9519 69.1964 90.8672C67.6898 91.444 66.1445 92.0038 64.5628 92.5435C62.6772 93.1865 60.7407 93.8013 58.7622 94.3829C58.5052 94.458 58.249 94.5331 57.9928 94.6067C56.4903 95.0389 54.9991 95.442 53.5233 95.8152C51.4195 96.3459 49.3456 96.8177 47.3137 97.2289C45.7425 97.548 44.1964 97.8307 42.6802 98.0771C40.3921 98.4503 38.1719 98.7419 36.039 98.9528C34.4088 99.1144 32.8296 99.2291 31.3085 99.2961C19.8115 99.8083 11.6461 97.6514 10.2567 92.928C8.17556 85.853 18.836 75.4481 39.0157 68.1607C22.2362 74.4303 14.0408 83.1613 15.7866 89.0981C16.8712 92.7842 22.7882 94.643 31.3085 94.6115C32.7811 94.6067 34.3321 94.5445 35.9485 94.4257C38.0854 94.2698 40.338 94.0137 42.6802 93.6583C44.19 93.4288 45.7369 93.1574 47.3137 92.8448C50.6687 92.1791 54.1594 91.3253 57.7164 90.2799C60.0739 89.5868 62.362 88.8396 64.5628 88.0487C66.155 87.4776 67.7011 86.883 69.1964 86.2698C71.6655 85.2576 73.9932 84.1953 76.1527 83.1023C76.4316 82.961 76.7072 82.8196 76.9795 82.6774C87.4185 77.2448 93.6629 71.1182 92.3358 66.6064C91.4192 63.489 87.0476 61.6787 80.568 61.2125C80.5689 60.9653 80.5689 60.7214 80.568 60.4815C90.5472 60.4273 97.4922 62.6012 98.7628 66.9231C100.327 72.2402 92.9064 79.4695 80.5559 85.8255Z" fill="#FC6E27"/>
<path d="M80.5843 61.0025C80.5867 66.2009 80.5713 72.9423 80.5681 74.3609C80.5681 74.5217 80.4638 74.663 80.3111 74.7123L76.6571 75.8869C76.4203 75.9628 76.1778 75.79 76.1722 75.5411L75.8812 60.8935L75.8723 60.4475L75.7583 54.7216C75.7559 54.5826 75.6759 54.4574 75.5506 54.396L69.7467 51.5516C69.5002 51.4305 69.2117 51.6098 69.2117 51.8845V78.0083C69.2117 78.169 69.1082 78.312 68.9547 78.3613L66.5833 79.1231L65.0631 79.611C64.8238 79.6886 64.5781 79.5101 64.5781 79.258V43.1913C64.5781 42.9013 64.8958 42.7244 65.1431 42.8755C69.4259 45.4929 73.8517 47.8938 77.9503 50.789C78.4619 51.151 79.3081 51.9871 79.9191 53.2966C80.4735 54.4873 80.5705 55.5617 80.5746 56.1741C80.581 57.1798 80.5835 58.6259 80.5843 60.2706C80.5851 60.5105 80.5851 60.7545 80.5843 61.0025Z" fill="white"/>
<path d="M234.806 93.0356C197.205 93.0356 159.603 93.0356 122.002 93.0356C121.71 93.0356 121.416 93.0534 121.125 93.0276C120.385 92.9605 119.966 92.5227 119.928 91.7762C119.908 91.3691 119.911 90.9587 119.928 90.5508C119.956 89.8536 120.364 89.4109 121.048 89.3156C121.192 89.2954 121.34 89.3002 121.486 89.2986C121.778 89.2962 122.071 89.297 122.363 89.297C197.302 89.297 272.242 89.297 347.181 89.297C347.532 89.297 347.883 89.3019 348.233 89.2978C348.6 89.2946 348.92 89.4206 349.213 89.6298C349.489 89.8269 349.669 90.083 349.671 90.4328C349.675 90.9288 349.689 91.4256 349.665 91.9208C349.643 92.3668 349.401 92.6818 348.983 92.8539C348.711 92.9654 348.437 93.0526 348.136 93.0381C347.844 93.0243 347.551 93.0356 347.259 93.0356C309.775 93.0356 272.29 93.0356 234.806 93.0356Z" fill="white"/>
<path d="M199.034 104.62C199.018 104.788 199.018 104.962 198.984 105.13C198.782 106.129 198.566 107.125 198.368 108.125C198.215 108.898 197.821 109.528 197.271 110.075C197.061 110.283 196.819 110.421 196.539 110.533C195.68 110.873 194.784 110.978 193.876 110.98C189.841 110.989 185.806 110.988 181.772 110.979C181.039 110.977 180.318 110.872 179.621 110.622C178.681 110.283 178.252 109.572 178.155 108.633C178.11 108.2 178.153 107.765 178.241 107.329C178.56 105.757 178.946 104.2 179.224 102.618C179.492 101.097 180.46 100.144 181.977 99.7895C182.46 99.6764 182.954 99.6247 183.455 99.6247C187.665 99.6295 191.875 99.6303 196.085 99.6231C196.589 99.6222 197.078 99.6974 197.557 99.8258C198.874 100.178 199.658 101.191 199.519 102.631C199.513 102.69 199.509 102.749 199.496 102.805C199.182 104.171 199.461 103.961 198.164 103.972C196.936 103.983 195.708 103.978 194.48 103.972C194.048 103.971 194.048 103.961 193.949 103.506C193.883 103.199 193.801 103.105 193.503 103.063C193.302 103.035 193.096 103.029 192.892 103.028C190.466 103.026 188.039 103.037 185.612 103.022C184.552 103.015 184.472 103.228 184.297 104.129C184.103 105.131 183.856 106.123 183.638 107.121C183.539 107.573 183.685 107.794 184.126 107.852C184.357 107.883 184.592 107.89 184.826 107.89C187.223 107.893 189.621 107.893 192.018 107.89C192.252 107.89 192.486 107.872 192.718 107.852C192.934 107.834 193.101 107.718 193.237 107.557C193.334 107.442 193.396 107.309 193.366 107.156C193.327 106.958 193.155 106.986 193.021 106.986C191.793 106.981 190.564 106.982 189.337 106.982C189.103 106.982 188.869 106.986 188.635 106.976C188.396 106.966 188.33 106.883 188.38 106.646C188.499 106.074 188.621 105.504 188.755 104.936C188.848 104.542 188.858 104.544 189.291 104.531C189.438 104.527 189.584 104.531 189.73 104.531C192.537 104.531 195.344 104.528 198.15 104.534C198.437 104.533 198.735 104.468 199.034 104.62Z" fill="white"/>
<path d="M243.808 99.8884C243.213 99.7148 242.616 99.6219 241.997 99.6251C239.951 99.6332 237.905 99.6283 235.859 99.6283C233.755 99.6283 231.652 99.6332 229.546 99.6259C228.837 99.6235 228.135 99.7002 227.483 99.962C226.595 100.319 225.825 100.831 225.562 101.844C225.46 102.239 225.317 102.623 225.225 103.02C224.96 104.156 224.705 105.294 224.463 106.435C224.361 106.919 224.289 107.411 224.227 107.903C224.18 108.28 224.206 108.658 224.276 109.035C224.403 109.717 224.778 110.19 225.404 110.495C226.16 110.863 226.967 110.977 227.787 110.979C231.879 110.991 235.971 110.991 240.063 110.98C240.972 110.977 241.864 110.832 242.715 110.483C242.993 110.369 243.225 110.217 243.421 109.988C243.925 109.402 244.297 108.75 244.455 107.991C244.759 106.538 245.039 105.08 245.351 103.629C245.45 103.17 245.506 102.713 245.531 102.247C245.594 101.074 244.731 100.157 243.808 99.8884ZM239.858 104.372C239.693 105.169 239.511 105.963 239.326 106.756C239.222 107.199 239.057 107.329 238.598 107.361C238.425 107.373 238.248 107.367 238.074 107.367C235.681 107.367 233.287 107.367 230.893 107.367C230.718 107.367 230.542 107.374 230.367 107.362C229.905 107.33 229.764 107.159 229.798 106.682C229.804 106.594 229.815 106.507 229.833 106.422C230.019 105.568 230.215 104.716 230.392 103.861C230.468 103.491 230.685 103.305 231.049 103.277C231.311 103.258 231.574 103.243 231.836 103.243C232.975 103.239 234.113 103.241 235.251 103.241C236.476 103.242 237.703 103.232 238.928 103.244C239.955 103.255 240.061 103.385 239.858 104.372Z" fill="white"/>
<path d="M222.178 101.889C222.156 100.912 221.664 100.246 220.745 99.9053C220.133 99.6783 219.5 99.6242 218.851 99.625C214.029 99.6299 209.207 99.6274 204.384 99.6282C204.18 99.6282 203.975 99.629 203.77 99.6315C203.57 99.6347 203.443 99.7357 203.397 99.9304C203.279 100.443 203.156 100.952 203.05 101.466C202.682 103.265 202.329 105.067 201.956 106.866C201.701 108.093 201.419 109.315 201.158 110.541C201.088 110.873 201.171 110.978 201.505 110.979C202.995 110.986 204.485 110.987 205.976 110.981C206.469 110.978 206.478 110.957 206.584 110.434C206.739 109.662 206.888 108.889 207.051 108.119C207.137 107.713 207.192 107.655 207.556 107.652C209.017 107.644 210.478 107.652 211.94 107.645C212.199 107.644 212.382 107.747 212.529 107.951C212.868 108.426 213.221 108.891 213.553 109.371C213.869 109.827 214.218 110.256 214.568 110.686C214.76 110.922 214.969 110.987 215.247 110.986C216.913 110.982 218.578 110.984 220.245 110.982C220.331 110.982 220.426 110.982 220.502 110.947C220.58 110.913 220.631 110.828 220.586 110.736C220.55 110.658 220.501 110.586 220.449 110.517C219.682 109.499 218.912 108.482 218.046 107.337C218.664 107.341 219.131 107.269 219.573 107.127C220.603 106.797 221.38 106.189 221.622 105.067C221.787 104.298 221.967 103.533 222.117 102.761C222.173 102.477 222.184 102.179 222.178 101.889ZM216.664 103.317C216.607 103.601 216.549 103.888 216.462 104.164C216.365 104.468 216.146 104.648 215.814 104.663C215.669 104.67 215.522 104.67 215.377 104.67C213.127 104.67 210.878 104.671 208.629 104.669C208.454 104.669 208.278 104.67 208.104 104.652C207.975 104.64 207.882 104.542 207.898 104.42C207.959 103.929 208.033 103.44 208.113 102.951C208.134 102.816 208.253 102.771 208.374 102.765C208.636 102.755 208.899 102.751 209.162 102.751C210.213 102.75 211.265 102.751 212.316 102.751C213.427 102.751 214.536 102.75 215.647 102.751C215.851 102.751 216.057 102.746 216.259 102.772C216.574 102.813 216.724 103.018 216.664 103.317Z" fill="white"/>
<path d="M290.077 100.015C289.841 99.9001 289.6 99.8088 289.338 99.7531C288.878 99.6554 288.415 99.6247 287.948 99.6255C285.524 99.6279 283.1 99.6263 280.677 99.6263H277.172C275.888 99.6263 274.602 99.6247 273.318 99.6271C272.56 99.6287 272.489 99.539 272.341 100.377C272.159 101.408 271.945 102.436 271.736 103.464C271.258 105.803 270.772 108.142 270.289 110.481C270.206 110.887 270.262 110.978 270.642 110.98C272.131 110.986 273.62 110.986 275.11 110.979C275.487 110.977 275.547 110.928 275.643 110.539C275.789 109.946 275.902 109.343 276.046 108.749C276.227 108.003 276.087 108.032 276.951 108.032C280.104 108.032 283.258 108.033 286.412 108.031C286.733 108.031 287.054 108.012 287.374 108.015C288.032 108.019 288.634 107.792 289.243 107.592C289.468 107.518 289.656 107.381 289.798 107.183C290.156 106.685 290.485 106.179 290.641 105.569C290.893 104.581 291.092 103.582 291.241 102.574C291.271 102.374 291.277 102.168 291.283 101.964C291.312 101.05 290.894 100.407 290.077 100.015ZM285.64 104.039C285.499 104.8 285.381 104.908 284.601 104.91C282.18 104.919 279.759 104.914 277.337 104.913C277.25 104.913 277.162 104.913 277.076 104.896C276.945 104.87 276.873 104.771 276.893 104.648C276.963 104.217 277.034 103.785 277.129 103.36C277.223 102.944 277.248 102.93 277.738 102.928C278.963 102.922 280.188 102.925 281.413 102.925C282.551 102.925 283.688 102.924 284.825 102.927C285.028 102.927 285.233 102.933 285.435 102.959C285.596 102.98 285.7 103.106 285.7 103.258C285.701 103.518 285.688 103.783 285.64 104.039Z" fill="white"/>
<path d="M269.169 99.6268C268.918 100.776 268.724 101.802 268.467 102.813C268.108 104.226 267.919 105.671 267.611 107.094C267.433 107.921 267.224 108.729 266.777 109.469C266.492 109.939 266.143 110.282 265.635 110.497C264.811 110.846 263.944 110.971 263.068 110.975C259.124 110.993 255.18 110.99 251.235 110.977C250.504 110.974 249.786 110.845 249.097 110.568C248.242 110.225 247.825 109.569 247.722 108.699C247.67 108.267 247.694 107.83 247.793 107.396C248.082 106.116 248.355 104.833 248.622 103.548C248.835 102.52 249.028 101.49 249.23 100.46C249.253 100.345 249.276 100.231 249.305 100.118C249.421 99.6607 249.442 99.6438 249.881 99.6268C249.968 99.6236 250.056 99.626 250.143 99.626C251.429 99.626 252.714 99.6252 254 99.6276C254.174 99.6276 254.351 99.6309 254.52 99.6648C254.583 99.6777 254.668 99.7771 254.674 99.8433C254.686 99.9847 254.666 100.133 254.638 100.273C254.25 102.187 253.857 104.1 253.468 106.014C253.422 106.241 253.375 106.471 253.361 106.702C253.344 106.972 253.485 107.14 253.762 107.182C253.992 107.216 254.227 107.227 254.46 107.227C256.651 107.23 258.843 107.229 261.034 107.229C261.18 107.229 261.327 107.233 261.472 107.222C262.13 107.174 262.251 107.072 262.377 106.397C262.777 104.249 263.293 102.126 263.775 99.996C263.849 99.668 263.877 99.6325 264.254 99.63C265.394 99.622 266.533 99.626 267.673 99.626C268.134 99.6268 268.597 99.6268 269.169 99.6268Z" fill="white"/>
<path d="M234.575 93.0723C196.932 93.0723 159.288 93.0675 121.645 93.0917C120.189 93.0925 119.854 92.4834 119.866 91.3589C119.882 89.6576 120.232 89.2052 121.652 89.1899C122.065 89.185 122.478 89.1891 122.891 89.1891C197.853 89.1891 272.815 89.1891 347.777 89.1891C349.593 89.1891 350.52 90.7078 349.699 92.3299C349.345 93.0295 348.708 93.1394 348.022 93.1329C347.613 93.1289 347.205 93.0747 346.797 93.0747C309.39 93.0723 271.982 93.0723 234.575 93.0723Z" fill="#FC6E27"/>
<path d="M349.331 62.4523L348.278 69.3553C347.54 74.195 345.934 77.5936 343.461 79.5534C340.988 81.5124 336.964 82.4923 331.39 82.4923H326.075C321.313 82.4923 317.925 81.7871 315.914 80.3766C313.902 78.9669 312.896 76.5846 312.896 73.2288C312.896 72.0712 313.007 70.7795 313.229 69.3545L314.281 62.4515C315.019 57.6125 316.625 54.2132 319.098 52.2534C321.57 50.2936 325.576 49.3145 331.113 49.3145H336.429C341.154 49.3145 344.54 50.0197 346.589 51.4294C348.638 52.8399 349.662 55.2076 349.662 58.5327C349.663 59.7218 349.552 61.0273 349.331 62.4523ZM339.309 63.1648C339.419 62.2148 339.503 61.5394 339.558 61.1388C339.612 60.7381 339.641 60.3447 339.641 59.9585C339.641 58.5044 339.225 57.5172 338.395 56.997C337.564 56.4775 336.005 56.2174 333.716 56.2174H331.723C328.881 56.2174 327.007 56.6561 326.104 57.531C325.199 58.4067 324.525 60.2849 324.082 63.164L323.252 68.6864C323.03 69.9935 322.919 71.0768 322.919 71.9371C322.919 73.333 323.335 74.2903 324.165 74.8098C324.996 75.3292 326.536 75.5893 328.788 75.5893H330.781C333.66 75.5893 335.551 75.1515 336.456 74.2758C337.361 73.4001 338.034 71.5372 338.477 68.6872L339.309 63.1648Z" fill="white"/>
<path d="M154.096 49.6836L150.298 72.3297C149.154 79.1058 144.58 82.4939 136.577 82.4939H131.064C127.062 82.4939 124.143 81.9445 122.306 80.8443C120.468 79.7448 119.549 77.932 119.549 75.4059C119.549 75.0497 119.58 74.6255 119.641 74.1352C119.702 73.6448 119.753 73.2514 119.794 72.9541L120.528 68.7195H130.942C130.942 68.7195 130.348 72.5712 130.264 73.4194C130.24 73.6561 130.268 72.5526 130.268 72.82C130.268 73.0874 130.268 73.266 130.268 73.3548C130.268 74.8412 131.267 75.5836 133.269 75.5836H135.414C136.72 75.5836 137.68 75.3162 138.292 74.7815C138.905 74.2467 139.312 73.3403 139.518 72.0623L143.254 49.6836H154.096Z" fill="white"/>
<path d="M187.875 82.472L177.883 82.4203L176.934 77.7349L162.675 77.8383L159.81 82.4874L149.711 82.4922L168.012 49.93L180.406 49.9219L187.875 82.472ZM175.706 70.7479L173.033 58.989L167.633 70.7536L175.706 70.7479Z" fill="white"/>
<path d="M223.594 49.7754L208.002 82.4936H193.001L187.355 49.7754H197.302L201.581 70.6378L213.701 49.7754H223.594Z" fill="white"/>
<path d="M236.936 49.9395L231.693 82.4928H221.266L226.509 49.9395H236.936Z" fill="white"/>
<path d="M310.541 62.672L309.518 69.4894C308.8 74.3057 307.256 77.6768 304.886 79.6027C302.516 81.5294 298.62 82.4923 293.199 82.4923H273.811L278.604 49.6699H297.993C302.588 49.6699 305.883 50.3695 307.876 51.7695C309.869 53.1687 310.865 55.5243 310.865 58.8348C310.865 59.9787 310.757 61.2575 310.541 62.672ZM300.793 63.3038C301.009 61.9797 301.117 60.8811 301.117 60.0078C301.117 58.5634 300.712 57.5778 299.905 57.0503C299.097 56.5244 297.598 56.2603 295.408 56.2603H287.06L284.205 75.8996H292.553C295.318 75.8996 297.14 75.4561 298.02 74.5674C298.9 73.6796 299.555 71.7764 299.986 68.856L300.793 63.3038Z" fill="white"/>
<path d="M272.979 62.672L271.956 69.4894C271.237 74.3057 269.693 77.6768 267.324 79.6027C264.954 81.5294 261.057 82.4923 255.637 82.4923H236.248L241.042 49.6699H260.43C265.026 49.6699 268.32 50.3695 270.313 51.7695C272.306 53.1687 273.302 55.5243 273.302 58.8348C273.302 59.9787 273.194 61.2575 272.979 62.672ZM263.23 63.3038C263.446 61.9797 263.553 60.8811 263.553 60.0078C263.553 58.5634 263.149 57.5778 262.342 57.0503C261.533 56.5244 260.034 56.2603 257.845 56.2603H249.497L246.642 75.8996H254.99C257.754 75.8996 259.577 75.4561 260.457 74.5674C261.336 73.6796 261.992 71.7764 262.423 68.856L263.23 63.3038Z" fill="white"/>
</svg>
