<svg width="250" height="250" viewBox="0 0 250 250" fill="none" xmlns="http://www.w3.org/2000/svg">
<path d="M124.924 0.120495C73.7564 0.120495 25.168 -4.43044 6.60907 43.1924C-1.05686 62.8614 0.0563942 88.4059 0.0563942 124.982C0.0563942 157.078 -0.972307 187.244 6.60907 206.758C25.1257 254.409 74.1087 249.844 124.896 249.844C173.893 249.844 224.412 254.945 243.196 206.758C250.876 186.892 249.749 161.728 249.749 124.982C249.749 76.2043 252.44 44.714 228.78 21.0717C204.824 -2.88059 172.427 0.120495 124.867 0.120495H124.924ZM113.735 22.6216C220.466 22.4525 234.051 10.5891 226.554 175.395C223.89 233.684 179.501 227.287 124.938 227.287C25.4498 227.287 22.5892 224.441 22.5892 124.926C22.5892 24.256 30.4806 22.6779 113.735 22.5934V22.6216ZM191.578 43.3473C183.306 43.3473 176.598 50.054 176.598 58.3246C176.598 66.5952 183.306 73.3018 191.578 73.3018C199.85 73.3018 206.557 66.5952 206.557 58.3246C206.557 50.054 199.85 43.3473 191.578 43.3473ZM124.924 60.8607C89.5111 60.8607 60.8061 89.5753 60.8061 124.982C60.8061 160.39 89.5111 189.09 124.924 189.09C160.336 189.09 189.027 160.39 189.027 124.982C189.027 89.5753 160.336 60.8607 124.924 60.8607ZM124.924 83.3618C179.952 83.3618 180.023 166.603 124.924 166.603C69.9094 166.603 69.8248 83.3618 124.924 83.3618Z" fill="#C5CDE0"/>
</svg>
