<svg width="249" height="250" viewBox="0 0 249 250" fill="none" xmlns="http://www.w3.org/2000/svg">
<path d="M68.1818 34.0909C68.1818 40.8334 66.1824 47.4246 62.4365 53.0308C58.6905 58.637 53.3662 63.0065 47.1369 65.5868C40.9076 68.167 34.0531 68.8422 27.4401 67.5268C20.8271 66.2114 14.7527 62.9645 9.98501 58.1968C5.21732 53.4291 1.97047 47.3547 0.655064 40.7417C-0.660341 34.1287 0.0147679 27.2742 2.59503 21.0449C5.17529 14.8156 9.54481 9.49131 15.151 5.74535C20.7573 1.99939 27.3484 0 34.0909 0C43.1324 0 51.8036 3.59171 58.1968 9.98499C64.5901 16.3783 68.1818 25.0494 68.1818 34.0909Z" fill="#C5CDE0"/>
<path d="M60.4549 90.9096V241.523C60.4609 242.634 60.2472 243.736 59.8262 244.764C59.4051 245.792 58.785 246.727 58.0014 247.515C57.2179 248.303 56.2863 248.928 55.2604 249.354C54.2344 249.781 53.1342 250.001 52.0231 250H16.0913C14.9802 250.003 13.8794 249.787 12.8523 249.363C11.8252 248.939 10.892 248.317 10.1063 247.531C9.32067 246.745 8.69803 245.812 8.27421 244.785C7.85039 243.758 7.63375 242.657 7.63675 241.546V90.9096C7.63675 88.6673 8.5275 86.5169 10.113 84.9314C11.6986 83.3458 13.849 82.4551 16.0913 82.4551H52.0231C54.2615 82.4611 56.4061 83.3545 57.9867 84.9394C59.5673 86.5243 60.4549 88.6713 60.4549 90.9096Z" fill="#C5CDE0"/>
<path d="M248.273 169.319V242.228C248.276 243.249 248.077 244.261 247.687 245.206C247.298 246.15 246.725 247.008 246.003 247.731C245.28 248.453 244.422 249.025 243.478 249.415C242.534 249.804 241.522 250.003 240.5 250H201.864C200.842 250.003 199.83 249.804 198.886 249.415C197.941 249.025 197.083 248.453 196.361 247.731C195.638 247.008 195.066 246.15 194.676 245.206C194.287 244.261 194.088 243.249 194.091 242.228V171.569C194.091 161.023 197.182 125.387 166.523 125.387C142.773 125.387 137.932 149.773 136.977 160.728V242.228C136.978 244.27 136.174 246.23 134.741 247.684C133.308 249.139 131.36 249.971 129.318 250H92C90.9804 250 89.9707 249.799 89.029 249.408C88.0872 249.017 87.2319 248.445 86.5119 247.723C85.792 247 85.2216 246.143 84.8334 245.201C84.4453 244.258 84.247 243.247 84.25 242.228V90.2505C84.247 89.2309 84.4453 88.2207 84.8334 87.2778C85.2216 86.3349 85.792 85.4778 86.5119 84.7558C87.2319 84.0337 88.0872 83.4608 89.029 83.0699C89.9707 82.679 90.9804 82.4778 92 82.4778H129.318C131.38 82.4778 133.357 83.2967 134.814 84.7544C136.272 86.2121 137.091 88.1891 137.091 90.2505V103.387C145.909 90.1596 158.977 79.9551 186.864 79.9551C248.636 79.9551 248.273 137.637 248.273 169.319Z" fill="#C5CDE0"/>
</svg>
