<svg width="308" height="250" viewBox="0 0 308 250" fill="none" xmlns="http://www.w3.org/2000/svg">
<path d="M307.564 29.6135C295.993 34.667 283.754 38.0242 271.224 39.5813C284.432 31.7487 294.306 19.34 298.971 4.70968C286.609 12.0476 273.081 17.2155 258.975 19.9895C250.331 10.745 239.105 4.31572 226.758 1.53774C214.41 -1.24023 201.512 -0.23829 189.742 4.41325C177.971 9.06478 167.873 17.1506 160.76 27.6191C153.648 38.0875 149.85 50.4541 149.861 63.1103C149.816 67.9411 150.309 72.7619 151.329 77.4839C126.237 76.2515 101.687 69.7394 79.283 58.3731C56.8788 47.0068 37.1246 31.042 21.3104 11.5215C13.1818 25.408 10.6635 41.8745 14.2702 57.5557C17.8769 73.2369 27.3362 86.9486 40.7148 95.8884C30.729 95.6192 20.9547 92.9506 12.2176 88.1079V88.7953C12.2457 103.351 17.2839 117.453 26.4853 128.732C35.6867 140.01 48.4903 147.777 62.744 150.727C57.3499 152.144 51.7913 152.838 46.2143 152.789C42.1986 152.863 38.1865 152.507 34.2467 151.727C38.3303 164.245 46.1921 175.19 56.7509 183.058C67.3096 190.925 80.0465 195.328 93.2098 195.66C70.9033 213.096 43.4044 222.566 15.0923 222.564C10.0477 222.607 5.00584 222.314 0 221.689C28.8682 240.301 62.5177 250.136 96.8657 249.999C212.948 249.999 276.411 153.852 276.411 70.5159C276.411 67.7349 276.411 65.0476 276.192 62.3604C288.551 53.4406 299.182 42.3438 307.564 29.6135Z" fill="#C5CDE0"/>
</svg>
