<svg width="249" height="250" viewBox="0 0 249 250" fill="none" xmlns="http://www.w3.org/2000/svg">
<path fill-rule="evenodd" clip-rule="evenodd" d="M212.553 36.3312C189.165 12.915 158.06 0.0137329 124.922 0C56.6391 0 1.06659 55.571 1.03912 123.872C1.02997 145.706 6.7337 167.02 17.5751 185.806L0 250L65.6723 232.773C83.7677 242.644 104.14 247.845 124.872 247.852H124.924C193.199 247.852 248.778 192.276 248.804 123.972C248.817 90.8691 235.944 59.7458 212.553 36.3312ZM124.922 226.93H124.879C106.404 226.923 88.2843 221.957 72.4731 212.578L68.7149 210.345L29.744 220.569L40.1459 182.573L37.6968 178.677C27.3895 162.283 21.9467 143.335 21.9559 123.88C21.9772 67.1097 68.1686 20.9229 124.963 20.9229C152.466 20.932 178.319 31.6559 197.758 51.1185C217.198 70.5811 227.898 96.4508 227.888 123.964C227.864 180.739 181.676 226.93 124.922 226.93ZM181.401 149.814C178.307 148.264 163.087 140.778 160.249 139.743C157.414 138.71 155.348 138.196 153.287 141.293C151.222 144.391 145.291 151.364 143.484 153.429C141.678 155.495 139.874 155.754 136.778 154.204C133.682 152.655 123.709 149.385 111.885 138.84C102.684 130.632 96.4722 120.496 94.6655 117.398C92.8619 114.297 94.6503 112.784 96.0236 111.081C99.3744 106.92 102.73 102.557 103.761 100.493C104.794 98.4268 104.277 96.6187 103.502 95.0699C102.73 93.5211 96.5393 78.2852 93.9606 72.0856C91.4459 66.0522 88.8962 66.8671 86.9949 66.7725C85.1913 66.6824 83.1268 66.6641 81.0623 66.6641C78.9993 66.6641 75.6454 67.4377 72.8073 70.5383C69.9707 73.6374 61.9751 81.1249 61.9751 96.3608C61.9751 111.597 73.0667 126.315 74.614 128.381C76.1612 130.447 96.4417 161.713 127.492 175.119C134.877 178.311 140.642 180.214 145.139 181.641C152.554 183.997 159.3 183.664 164.635 182.867C170.583 181.978 182.947 175.378 185.529 168.149C188.107 160.918 188.107 154.721 187.332 153.429C186.56 152.138 184.496 151.364 181.401 149.814Z" fill="#C5CDE0"/>
</svg>
