<svg width="50" height="50" viewBox="0 0 50 50" fill="none" xmlns="http://www.w3.org/2000/svg">
<rect width="50" height="50" rx="25" fill="black"/>
<path d="M22.567 26.6906C22.567 26.7525 22.5257 26.8093 22.4664 26.8299L20.8915 27.3486C20.8915 27.3486 20.8708 27.3538 20.8605 27.3563C20.7779 27.3641 20.7004 27.2996 20.7004 27.2118L20.6643 19.9942V19.9736L20.6333 13.6488C20.6333 13.543 20.5249 13.4733 20.4293 13.5146L16.4637 15.2332C16.3682 15.2745 16.2598 15.2048 16.2598 15.099V13.8733C16.2598 13.8217 16.2856 13.7752 16.3295 13.7494L22.2908 10.049C22.3889 9.98964 22.5128 10.0593 22.5128 10.1729L22.5438 19.3336V19.3388L22.5593 24.1927L22.567 26.6931V26.6906Z" fill="#ECECEC"/>
<path d="M26.8117 25.4996L25.2807 25.9925C25.211 26.0157 25.1387 25.9641 25.1387 25.8893L25.1051 18.5839L25.0664 9.92381C25.0664 9.5419 25.2962 9.18837 25.6551 9.05677C25.7532 9.02064 25.859 9 25.97 9C26.1275 9 26.2747 9.03871 26.4063 9.11096C26.6981 9.26837 26.8736 9.58319 26.8736 9.91607C26.8762 12.6566 26.8788 15.397 26.8814 18.1375V18.1478C26.8814 20.5632 26.8866 22.9811 26.8891 25.3964C26.8891 25.4429 26.8582 25.4867 26.8143 25.4996H26.8117Z" fill="#EF8C22"/>
<path d="M25.0664 39.6529C25.0638 40.151 25.4279 40.5664 25.8952 40.5922C25.9184 40.5922 25.9442 40.5922 25.9675 40.5922C26.0036 40.5922 26.0423 40.5922 26.0785 40.5871C26.5277 40.5509 26.8711 40.1406 26.8737 39.6581C26.8788 36.4738 26.884 33.2869 26.8892 30.1025C26.8892 29.6587 26.5974 29.2768 26.1895 29.1865C25.6473 29.0678 25.1387 29.5065 25.1335 30.0948L25.069 39.6504L25.0664 39.6529Z" fill="#EF8C22"/>
<path d="M35.7651 33.6744C35.7651 33.9143 35.7263 34.3375 35.5069 34.8072C35.2668 35.3233 34.9337 35.651 34.7324 35.7929C33.1188 36.9309 31.3786 37.8754 29.6927 38.9076C29.5946 38.9669 29.4707 38.8973 29.4707 38.7837V28.0773C30.0981 27.8528 30.7048 27.618 31.2934 27.378V35.3646C31.2934 35.473 31.407 35.5426 31.5051 35.4962L33.7874 34.3763C33.8365 34.353 33.8675 34.304 33.87 34.2472L33.994 28.0592L34.0327 26.1316V26.0593C34.0353 25.9613 34.1334 25.8942 34.2263 25.9226L34.358 25.9639L35.6618 26.3845C35.7212 26.4051 35.7625 26.4593 35.7625 26.5238C35.7625 26.6529 35.7625 26.8903 35.7625 27.2051C35.7651 28.7818 35.7728 32.2912 35.7625 33.6795L35.7651 33.6744Z" fill="#ECECEC"/>
<path d="M22.6856 29.9609V38.7811C22.6856 38.8946 22.5617 38.9643 22.4636 38.9049C20.7777 37.8753 19.0376 36.9308 17.424 35.7903C17.2226 35.6483 16.8895 35.318 16.6494 34.8045C16.4326 34.3349 16.3938 33.9142 16.3913 33.6717C16.3913 33.3672 16.3887 32.962 16.3887 32.4976C16.3887 31.9428 16.3887 31.3054 16.3887 30.6551C16.967 30.6551 17.5789 30.6293 18.214 30.5828L18.2501 32.3634L18.2889 34.2446C18.2889 34.2987 18.3224 34.3478 18.3715 34.3736L20.6563 35.4935C20.7545 35.54 20.8655 35.4703 20.8655 35.3619V30.2809C21.4593 30.1906 22.0686 30.0848 22.6882 29.9609H22.6856Z" fill="#ECECEC"/>
<path d="M35.7569 27.0274C35.1915 27.319 34.6003 27.6054 33.9858 27.8841C33.1287 28.2738 32.2276 28.6505 31.2879 29.0092C30.6941 29.2363 30.0873 29.4556 29.4651 29.6698C28.7242 29.9227 27.9625 30.1653 27.1828 30.3923C27.0822 30.4207 26.9815 30.4517 26.8808 30.4801C26.2895 30.6504 25.7035 30.8078 25.1226 30.9549C24.2938 31.1639 23.478 31.3497 22.6802 31.5123C22.0632 31.6387 21.4539 31.7497 20.8575 31.8452C19.9565 31.9922 19.0838 32.1058 18.2447 32.1909C17.6045 32.2555 16.9822 32.2993 16.3833 32.3251C11.86 32.5264 8.64828 31.6774 8.10095 29.8195C7.28252 27.0351 11.4753 22.9425 19.4143 20.0756C12.8127 22.5425 9.58804 25.9771 10.2748 28.3125C10.7008 29.7627 13.0295 30.493 16.3807 30.4827C16.959 30.4827 17.5709 30.4569 18.206 30.4104C19.0477 30.3485 19.9332 30.2478 20.8549 30.1085C21.4487 30.0182 22.058 29.9124 22.6776 29.7885C23.9969 29.5279 25.3704 29.1898 26.7698 28.7795C27.6966 28.506 28.5976 28.2118 29.4625 27.9022C30.0899 27.6777 30.6966 27.4428 31.2853 27.2029C32.256 26.8055 33.1726 26.3874 34.022 25.9565C34.1304 25.8997 34.2388 25.8455 34.3473 25.7888C38.4549 23.6521 40.9101 21.2419 40.3886 19.4666C40.0272 18.2408 38.3077 17.5286 35.7595 17.3454C35.7595 17.2473 35.7595 17.1519 35.7595 17.059C39.6864 17.0383 42.4179 17.8925 42.9187 19.593C43.5332 21.6858 40.6158 24.5295 35.7569 27.03V27.0274Z" fill="#EF8C22"/>
<path d="M35.7677 17.2625C35.7677 19.3088 35.7625 21.959 35.7625 22.519C35.7625 22.5835 35.7212 22.6377 35.6618 22.6583L34.2237 23.1202C34.1308 23.1512 34.0353 23.0815 34.0327 22.9835L33.9191 17.2212V17.0458L33.87 14.793C33.87 14.7388 33.8365 14.6898 33.7874 14.664L31.5051 13.544C31.407 13.4976 31.2934 13.5673 31.2934 13.6756V23.9537C31.2934 24.0182 31.2521 24.0724 31.1927 24.0931L30.2607 24.3924L29.6618 24.5834C29.5688 24.6143 29.4707 24.5447 29.4707 24.444V10.2539C29.4707 10.1404 29.5946 10.0707 29.6927 10.1301C31.3786 11.1597 33.1188 12.1041 34.7324 13.2447C34.9337 13.3866 35.2668 13.7169 35.5069 14.2304C35.7238 14.7001 35.7625 15.1207 35.7651 15.3633C35.7651 15.7581 35.7677 16.3284 35.7677 16.9761C35.7677 17.0716 35.7677 17.167 35.7677 17.2651V17.2625Z" fill="#ECECEC"/>
</svg>
