<svg width="512" height="512" viewBox="0 0 512 512" fill="none" xmlns="http://www.w3.org/2000/svg">
<rect width="512" height="512" rx="63" fill="#222944"/>
<path d="M178.931 352.719L178.768 352.873C178.559 353.114 178.337 353.368 178.102 353.631C183.334 355.536 187.017 357.214 190.877 358.221C215.196 364.567 239.81 369.284 264.809 372.146C290.437 375.081 315.993 376.102 341.499 371.43C357.166 368.559 372.492 363.995 384.298 352.896C407.856 330.752 430.984 308.132 453.754 285.175C464.074 274.77 472.351 262.546 479.174 249.465C491.927 225.025 493.78 200.014 483.201 174.282C472.097 147.285 452.562 128.035 428.035 113.352C427.781 113.198 427.527 113.048 427.273 112.898C403.996 99.1047 378.703 90.3731 352.567 84.1227C335.542 80.054 318.277 77.0059 299.426 73.1504C310.734 81.129 320.827 87.384 329.92 94.8636C339.95 103.11 348.114 112.644 353.954 123.73L353.958 123.735C357.27 130.035 359.834 136.834 361.569 144.182C363.1 150.682 363.676 156.865 362.996 162.716C362.996 162.734 362.992 162.752 362.987 162.775C362.317 168.517 360.441 173.942 357.084 179.022C357.075 179.036 357.066 179.054 357.057 179.068C355.449 181.499 353.5 183.849 351.181 186.121C347.81 189.423 344.467 192.752 341.128 196.091L341.123 196.095L178.931 352.719Z" fill="#D33434"/>
<path d="M333.096 159.291L333.259 159.136C333.467 158.896 333.689 158.642 333.925 158.379C328.692 156.474 325.009 154.796 321.149 153.789C296.83 147.443 272.216 142.726 247.218 139.863C221.589 136.929 196.033 135.908 170.527 140.58C154.861 143.451 139.535 148.014 127.728 159.114C104.17 181.258 81.0427 203.878 58.2729 226.834C47.9526 237.24 39.6756 249.464 32.8528 262.545C20.0998 286.985 18.2468 311.996 28.8253 337.728C39.9293 364.725 59.4644 383.975 83.992 398.658C84.2457 398.812 84.4994 398.962 84.7531 399.112C108.03 412.905 133.323 421.637 159.459 427.887C176.485 431.956 193.75 435.004 212.601 438.86C201.293 430.881 191.199 424.626 182.107 417.146C172.076 408.9 163.913 399.366 158.073 388.28L158.069 388.275C154.757 381.975 152.193 375.176 150.457 367.828C148.926 361.328 148.351 355.145 149.03 349.294C149.03 349.276 149.035 349.258 149.039 349.235C149.71 343.493 151.586 338.068 154.943 332.988C154.952 332.974 154.961 332.956 154.97 332.942C156.578 330.511 158.526 328.161 160.846 325.889C164.216 322.587 167.56 319.257 170.899 315.919L170.903 315.915L333.096 159.291Z" fill="white"/>
<path d="M306.77 439.675C305.01 441.802 302.975 443.415 300.665 444.515C298.355 445.578 296.027 446.092 293.68 446.055C291.334 446.055 289.024 445.652 286.75 444.845C284.477 444.038 282.405 442.81 280.535 441.16C278.665 439.51 277.18 437.603 276.08 435.44C274.687 432.763 273.972 429.977 273.935 427.08C273.899 424.147 274.412 421.47 275.475 419.05C276.502 416.593 277.969 414.412 279.875 412.505C281.819 410.525 283.982 409.022 286.365 407.995C288.785 406.932 291.462 406.455 294.395 406.565C297.329 406.675 300.152 407.537 302.865 409.15C303.599 409.517 304.24 409.938 304.79 410.415C305.377 410.855 305.927 411.35 306.44 411.9C306.954 412.45 307.339 412.89 307.595 413.22C307.852 413.513 308.237 414.008 308.75 414.705C309.264 415.402 309.594 415.842 309.74 416.025C310.364 416.868 310.602 417.822 310.455 418.885C310.309 419.912 309.814 420.737 308.97 421.36C308.127 421.983 307.192 422.222 306.165 422.075C305.139 421.928 304.295 421.433 303.635 420.59L302.535 419.16L301.655 417.95C301.509 417.73 301.27 417.455 300.94 417.125C300.647 416.795 300.354 416.538 300.06 416.355C299.804 416.135 299.474 415.897 299.07 415.64C296.504 414.32 294.029 413.88 291.645 414.32C289.262 414.723 287.154 415.878 285.32 417.785C283.414 419.692 282.222 421.91 281.745 424.44C281.269 426.933 281.617 429.427 282.79 431.92C284 434.303 285.724 436.063 287.96 437.2C290.234 438.337 292.562 438.703 294.945 438.3C297.329 437.86 299.309 436.687 300.885 434.78C301.619 433.937 302.04 433.258 302.15 432.745C302.224 432.488 302.279 432.25 302.315 432.03C301.252 431.993 299.235 432.048 296.265 432.195C295.202 432.232 294.285 431.902 293.515 431.205C292.745 430.508 292.342 429.628 292.305 428.565C292.269 427.502 292.599 426.585 293.295 425.815C293.992 425.045 294.872 424.642 295.935 424.605C298.905 424.495 302.26 424.44 306 424.44C307.064 424.44 307.98 424.825 308.75 425.595C309.557 426.365 309.942 427.318 309.905 428.455V429.72C309.942 430.6 309.924 431.48 309.85 432.36C309.814 433.203 309.722 433.955 309.575 434.615C309.135 436.265 308.2 437.952 306.77 439.675ZM321.31 446.11C320.063 446.073 319.055 445.56 318.285 444.57C317.551 443.837 317.166 442.938 317.13 441.875C317.093 438.135 317.02 432.837 316.91 425.98L316.745 410.525C316.745 409.462 317.111 408.563 317.845 407.83C318.578 407.06 319.476 406.675 320.54 406.675C321.603 406.638 322.501 406.987 323.235 407.72C324.005 408.453 324.408 409.352 324.445 410.415L324.61 424.825L324.775 438.685C326.571 438.685 329.175 438.667 332.585 438.63C336.031 438.593 338.561 438.575 340.175 438.575C341.238 438.575 342.136 438.942 342.87 439.675C343.64 440.372 344.025 441.233 344.025 442.26C344.025 443.287 343.64 444.185 342.87 444.955C342.136 445.688 341.238 446.055 340.175 446.055C338.965 446.055 335.83 446.073 330.77 446.11C325.673 446.147 322.52 446.147 321.31 446.11ZM361.71 446.495C358.996 446.385 356.576 445.78 354.45 444.68C352.323 443.58 350.6 442.15 349.28 440.39C347.996 438.63 347.006 436.723 346.31 434.67C345.613 432.58 345.246 430.417 345.21 428.18C345.136 425.687 345.375 423.358 345.925 421.195C346.475 419.032 347.281 416.978 348.345 415.035C349.445 413.055 350.911 411.313 352.745 409.81C354.578 408.27 356.65 407.17 358.96 406.51C359.876 406.29 360.921 406.18 362.095 406.18H363.25C363.836 406.18 364.258 406.198 364.515 406.235C364.771 406.272 365.046 406.29 365.34 406.29C366.513 406.327 367.448 406.382 368.145 406.455C368.878 406.528 369.831 406.767 371.005 407.17C372.178 407.573 373.333 408.16 374.47 408.93C377.036 410.69 378.925 412.908 380.135 415.585C381.381 418.262 381.986 421.048 381.95 423.945C381.913 426.805 381.418 429.555 380.465 432.195C379.768 434.102 378.833 435.917 377.66 437.64C376.523 439.327 375.166 440.867 373.59 442.26C372.013 443.617 370.198 444.68 368.145 445.45C366.091 446.22 363.946 446.568 361.71 446.495ZM362.04 438.96C364.35 439.033 366.513 438.172 368.53 436.375C370.583 434.578 372.123 432.305 373.15 429.555C374.286 426.475 374.543 423.688 373.92 421.195C373.333 418.702 372.086 416.795 370.18 415.475C369.703 415.145 369.3 414.907 368.97 414.76C368.676 414.577 368.31 414.412 367.87 414.265C367.466 414.118 367.045 414.027 366.605 413.99C366.165 413.953 365.816 413.935 365.56 413.935C365.303 413.935 364.973 413.917 364.57 413.88C364.166 413.843 363.873 413.807 363.69 413.77C363.506 413.697 363.158 413.66 362.645 413.66C362.168 413.587 361.673 413.642 361.16 413.825C358.556 414.778 356.503 416.502 355 418.995C353.533 421.452 352.836 424.422 352.91 427.905C352.983 431.022 353.826 433.625 355.44 435.715C357.053 437.805 359.253 438.887 362.04 438.96ZM403.258 446.165C401.571 446.238 399.555 446.22 397.208 446.11C396.841 446.11 396.126 446.073 395.063 446C394 445.963 393.193 445.927 392.643 445.89C392.496 445.927 392.35 445.945 392.203 445.945C391.543 445.945 390.956 445.798 390.443 445.505C389.783 445.175 389.251 444.698 388.848 444.075C388.445 443.452 388.243 442.755 388.243 441.985C388.243 441.728 388.28 441.472 388.353 441.215C388.353 439.492 388.371 436.43 388.408 432.03C388.445 427.63 388.426 423.89 388.353 420.81C388.28 417.693 388.115 414.577 387.858 411.46C387.785 410.433 388.041 409.535 388.628 408.765C389.215 407.958 389.985 407.463 390.938 407.28C391.488 406.913 392.111 406.712 392.808 406.675C393.321 406.675 394.073 406.657 395.063 406.62C396.09 406.583 396.805 406.547 397.208 406.51C399.188 406.437 400.893 406.455 402.323 406.565C406.76 406.822 410.298 407.94 412.938 409.92C415.175 411.607 416.495 413.715 416.898 416.245C417.228 418.335 416.88 420.627 415.853 423.12C415.56 423.817 415.175 424.312 414.698 424.605C417.411 426.035 419.153 428.198 419.923 431.095C420.583 433.625 420.546 435.807 419.813 437.64C419.116 439.437 417.723 441.087 415.633 442.59C412.553 444.753 408.428 445.945 403.258 446.165ZM402.928 438.63C406.595 438.483 409.363 437.732 411.233 436.375C412.076 435.788 412.553 435.312 412.663 434.945C412.81 434.578 412.755 433.918 412.498 432.965C412.168 431.572 410.518 430.71 407.548 430.38C406.191 430.197 404.395 430.142 402.158 430.215C399.041 430.252 397.245 430.27 396.768 430.27L395.998 430.16C395.961 435.367 395.943 438.135 395.943 438.465C396.64 438.502 397.19 438.538 397.593 438.575C399.72 438.648 401.498 438.667 402.928 438.63ZM403.808 422.13C406.668 421.873 408.355 421.14 408.868 419.93C409.308 418.94 409.473 418.152 409.363 417.565C409.29 417.162 408.996 416.74 408.483 416.3C407.016 415.237 404.816 414.613 401.883 414.43C400.673 414.357 399.206 414.357 397.483 414.43C397.043 414.43 396.456 414.448 395.723 414.485C395.833 416.722 395.925 419.16 395.998 421.8C399.298 422.167 401.901 422.277 403.808 422.13ZM423.062 443.745C422.622 442.755 422.604 441.783 423.007 440.83L435.327 409.095C435.621 408.398 436.079 407.83 436.702 407.39C437.326 406.95 438.022 406.712 438.792 406.675C439.599 406.528 440.387 406.675 441.157 407.115C441.964 407.518 442.569 408.105 442.972 408.875L447.042 418.995L451.827 430.82L455.622 440.72C456.026 441.71 456.007 442.7 455.567 443.69C455.164 444.643 454.449 445.322 453.422 445.725C452.432 446.128 451.442 446.128 450.452 445.725C449.462 445.285 448.766 444.588 448.362 443.635L445.172 436.375C441.066 436.265 436.996 436.302 432.962 436.485L430.267 443.745C429.827 444.698 429.112 445.395 428.122 445.835C427.132 446.238 426.142 446.238 425.152 445.835C424.162 445.395 423.466 444.698 423.062 443.745ZM436.152 428.62C437.546 428.62 439.562 428.62 442.202 428.62L439.287 420.7L436.152 428.62ZM464.825 446.11C463.579 446.073 462.57 445.56 461.8 444.57C461.067 443.837 460.682 442.938 460.645 441.875C460.609 438.135 460.535 432.837 460.425 425.98L460.26 410.525C460.26 409.462 460.627 408.563 461.36 407.83C462.094 407.06 462.992 406.675 464.055 406.675C465.119 406.638 466.017 406.987 466.75 407.72C467.52 408.453 467.924 409.352 467.96 410.415L468.125 424.825L468.29 438.685C470.087 438.685 472.69 438.667 476.1 438.63C479.547 438.593 482.077 438.575 483.69 438.575C484.754 438.575 485.652 438.942 486.385 439.675C487.155 440.372 487.54 441.233 487.54 442.26C487.54 443.287 487.155 444.185 486.385 444.955C485.652 445.688 484.754 446.055 483.69 446.055C482.48 446.055 479.345 446.073 474.285 446.11C469.189 446.147 466.035 446.147 464.825 446.11Z" fill="white"/>
</svg>
