<svg width="512" height="512" viewBox="0 0 512 512" fill="none" xmlns="http://www.w3.org/2000/svg">
<rect width="512" height="512" rx="63" fill="#222944"/>
<path d="M178.931 352.719L178.768 352.873C178.559 353.114 178.337 353.368 178.102 353.631C183.334 355.536 187.017 357.214 190.877 358.221C215.196 364.567 239.81 369.284 264.809 372.146C290.437 375.081 315.993 376.102 341.499 371.43C357.166 368.559 372.492 363.995 384.298 352.896C407.856 330.752 430.984 308.132 453.754 285.175C464.074 274.77 472.351 262.546 479.174 249.465C491.927 225.025 493.78 200.014 483.201 174.282C472.097 147.285 452.562 128.035 428.035 113.352C427.781 113.198 427.527 113.048 427.273 112.898C403.996 99.1047 378.703 90.3731 352.567 84.1227C335.542 80.054 318.277 77.0059 299.426 73.1504C310.734 81.129 320.827 87.384 329.92 94.8636C339.95 103.11 348.114 112.644 353.954 123.73L353.958 123.735C357.27 130.035 359.834 136.834 361.569 144.182C363.1 150.682 363.676 156.865 362.996 162.716C362.996 162.734 362.992 162.752 362.987 162.775C362.317 168.517 360.441 173.942 357.084 179.022C357.075 179.036 357.066 179.054 357.057 179.068C355.449 181.499 353.5 183.849 351.181 186.121C347.81 189.423 344.467 192.752 341.128 196.091L341.123 196.095L178.931 352.719Z" fill="#D33434"/>
<path d="M333.096 159.291L333.259 159.136C333.467 158.896 333.689 158.642 333.925 158.379C328.692 156.474 325.009 154.796 321.149 153.789C296.83 147.443 272.216 142.726 247.218 139.863C221.589 136.929 196.033 135.908 170.527 140.58C154.861 143.451 139.535 148.014 127.728 159.114C104.17 181.258 81.0427 203.878 58.2729 226.834C47.9526 237.24 39.6756 249.464 32.8528 262.545C20.0998 286.985 18.2468 311.996 28.8253 337.728C39.9293 364.725 59.4644 383.975 83.992 398.658C84.2457 398.812 84.4994 398.962 84.7531 399.112C108.03 412.905 133.323 421.637 159.459 427.887C176.485 431.956 193.75 435.004 212.601 438.86C201.293 430.881 191.199 424.626 182.107 417.146C172.076 408.9 163.913 399.366 158.073 388.28L158.069 388.275C154.757 381.975 152.193 375.176 150.457 367.828C148.926 361.328 148.351 355.145 149.03 349.294C149.03 349.276 149.035 349.258 149.039 349.235C149.71 343.493 151.586 338.068 154.943 332.988C154.952 332.974 154.961 332.956 154.97 332.942C156.578 330.511 158.526 328.161 160.846 325.889C164.216 322.587 167.56 319.257 170.899 315.919L170.903 315.915L333.096 159.291Z" fill="white"/>
<path d="M412.793 443.745C412.353 442.755 412.334 441.783 412.738 440.83L425.058 409.095C425.351 408.398 425.809 407.83 426.433 407.39C427.056 406.95 427.753 406.712 428.523 406.675C429.329 406.528 430.118 406.675 430.888 407.115C431.694 407.518 432.299 408.105 432.703 408.875L436.773 418.995L441.558 430.82L445.353 440.72C445.756 441.71 445.738 442.7 445.298 443.69C444.894 444.643 444.179 445.322 443.153 445.725C442.163 446.128 441.173 446.128 440.183 445.725C439.193 445.285 438.496 444.588 438.093 443.635L434.903 436.375C430.796 436.265 426.726 436.302 422.693 436.485L419.998 443.745C419.558 444.698 418.843 445.395 417.853 445.835C416.863 446.238 415.873 446.238 414.883 445.835C413.893 445.395 413.196 444.698 412.793 443.745ZM425.883 428.62C427.276 428.62 429.293 428.62 431.933 428.62L429.018 420.7L425.883 428.62ZM462.586 446C457.599 446 453.511 445.927 450.321 445.78C449.294 445.743 448.451 445.34 447.791 444.57C447.131 443.8 446.819 442.902 446.856 441.875C446.892 440.848 447.296 439.968 448.066 439.235C449.129 438.062 450.852 435.862 453.236 432.635C462.219 422.442 467.279 416.318 468.416 414.265C460.459 414.412 454.629 414.357 450.926 414.1C449.899 414.027 449.056 413.605 448.396 412.835C447.736 412.065 447.442 411.148 447.516 410.085C447.589 409.022 447.992 408.16 448.726 407.5C449.496 406.803 450.376 406.492 451.366 406.565C453.786 406.712 456.279 406.803 458.846 406.84C461.449 406.877 464.419 406.858 467.756 406.785C471.129 406.712 473.641 406.675 475.291 406.675C476.281 406.675 477.124 407.042 477.821 407.775C478.554 408.508 478.921 409.388 478.921 410.415C478.921 411.368 478.646 412.193 478.096 412.89C478.022 413 477.967 413.11 477.931 413.22C476.757 415.2 475.254 417.327 473.421 419.6C471.624 421.837 466.839 427.667 459.066 437.09L457.966 438.465C459.176 438.465 460.661 438.502 462.421 438.575C469.424 438.428 473.641 438.355 475.071 438.355C476.061 438.355 476.904 438.722 477.601 439.455C478.334 440.188 478.701 441.068 478.701 442.095C478.701 443.085 478.334 443.947 477.601 444.68C476.904 445.413 476.061 445.78 475.071 445.78C473.714 445.78 469.552 445.853 462.586 446Z" fill="white"/>
</svg>
