<svg width="512" height="512" viewBox="0 0 512 512" fill="none" xmlns="http://www.w3.org/2000/svg">
<g clip-path="url(#clip0_5977_43)">
<path d="M31.9997 34.8377C-8.23497 76.6297 -0.000306403 121.024 -0.000306403 255.894C-0.000306403 367.894 -19.5416 480.171 82.7304 506.603C114.666 514.816 397.632 514.816 429.525 506.56C472.106 495.574 506.752 461.035 511.488 400.811C512.149 392.406 512.149 119.531 511.466 110.955C506.432 46.8057 466.944 9.83501 414.912 2.34701C402.986 0.619006 400.597 0.107005 339.413 0.000338738C122.389 0.107005 74.8157 -9.557 31.9997 34.8377Z" fill="url(#paint0_linear_5977_43)"/>
<path d="M255.958 66.9656C178.497 66.9656 104.939 60.075 76.8433 132.182C65.2379 161.963 66.9233 200.64 66.9233 256.022C66.9233 304.619 65.3659 350.294 76.8433 379.84C104.875 451.99 179.03 445.078 255.915 445.078C330.091 445.078 406.571 452.8 435.009 379.84C446.635 349.76 444.929 311.659 444.929 256.022C444.929 182.166 449.003 134.486 413.185 98.6883C376.918 62.4216 327.873 66.9656 255.873 66.9656H255.958ZM239.019 101.035C400.598 100.779 421.163 82.8163 409.814 332.352C405.782 420.608 338.582 410.923 255.979 410.923C105.366 410.923 101.035 406.614 101.035 255.936C101.035 103.51 112.982 101.12 239.019 100.992V101.035ZM356.865 132.416C344.342 132.416 334.187 142.571 334.187 155.094C334.187 167.616 344.342 177.771 356.865 177.771C369.387 177.771 379.542 167.616 379.542 155.094C379.542 142.571 369.387 132.416 356.865 132.416ZM255.958 158.934C202.347 158.934 158.891 202.411 158.891 256.022C158.891 309.632 202.347 353.088 255.958 353.088C309.569 353.088 353.003 309.632 353.003 256.022C353.003 202.411 309.569 158.934 255.958 158.934ZM255.958 193.003C339.265 193.003 339.371 319.04 255.958 319.04C172.673 319.04 172.545 193.003 255.958 193.003Z" fill="white"/>
</g>
<defs>
<linearGradient id="paint0_linear_5977_43" x1="32.9815" y1="479.298" x2="508.831" y2="67.4558" gradientUnits="userSpaceOnUse">
<stop stop-color="#FFDD55"/>
<stop offset="0.5" stop-color="#FF543E"/>
<stop offset="1" stop-color="#C837AB"/>
</linearGradient>
<clipPath id="clip0_5977_43">
<rect width="512" height="512" fill="white"/>
</clipPath>
</defs>
</svg>
