<svg width="1769" height="512" viewBox="0 0 1769 512" fill="none" xmlns="http://www.w3.org/2000/svg">
<rect width="1769" height="512" rx="63" fill="black"/>
<path d="M297.379 277.41C297.382 278.115 296.929 278.746 296.255 278.967L278.605 284.783C278.488 284.823 278.37 284.848 278.252 284.858C277.322 284.951 276.462 284.224 276.455 283.237L276.045 202.31V202.071L275.685 131.145C275.678 129.969 274.473 129.185 273.396 129.651L228.932 148.918C227.851 149.385 226.643 148.594 226.643 147.418V133.664C226.643 133.098 226.935 132.574 227.416 132.275L294.266 90.7758C295.353 90.1023 296.762 90.8792 296.765 92.1622L297.104 194.9V194.954L297.286 249.379L297.379 277.41Z" fill="white" stroke="white" stroke-miterlimit="10"/>
<path d="M344.968 264.023L327.803 269.536C327.015 269.789 326.205 269.205 326.202 268.374L325.827 186.457V186.446L325.389 89.3533C325.371 85.0587 327.952 81.0956 331.989 79.6237C333.094 79.221 334.282 79 335.512 79C337.27 79 338.942 79.4491 340.411 80.2438C343.688 82.0187 345.642 85.5363 345.645 89.2606C345.678 119.989 345.71 150.725 345.738 181.453V181.567C345.767 208.66 345.795 235.761 345.824 262.854C345.817 263.388 345.474 263.859 344.968 264.023Z" fill="#F6921E"/>
<path d="M325.405 422.733C325.369 428.314 329.444 432.979 334.682 433.264C334.953 433.278 335.228 433.285 335.503 433.285C335.92 433.285 336.33 433.268 336.736 433.236C341.789 432.819 345.633 428.218 345.643 422.829C345.697 387.114 345.75 351.396 345.804 315.682C345.811 310.707 342.527 306.412 337.949 305.411C331.869 304.078 326.164 308.989 326.121 315.593L325.405 422.733Z" fill="#F6921E"/>
<path d="M445.361 355.691C445.343 358.393 444.915 363.133 442.469 368.386C439.774 374.163 436.04 377.852 433.783 379.449C415.702 392.222 396.176 402.814 377.281 414.361C376.19 415.028 374.789 414.247 374.789 412.968V292.898C381.813 290.375 388.635 287.752 395.231 285.047V374.616C395.231 375.828 396.504 376.619 397.592 376.084L423.197 363.536C423.749 363.265 424.102 362.712 424.113 362.099L425.493 292.702L425.921 271.072L425.939 270.249C425.964 269.151 427.037 268.389 428.078 268.724L429.565 269.201L444.199 273.906C444.873 274.123 445.333 274.747 445.333 275.456C445.336 276.889 445.343 279.558 445.347 283.094C445.386 300.764 445.454 340.128 445.361 355.691Z" fill="white" stroke="white" stroke-miterlimit="10"/>
<path d="M298.693 314.057V412.968C298.693 414.247 297.292 415.028 296.201 414.361C277.306 402.814 257.781 392.222 239.699 379.449C237.442 377.852 233.709 374.163 231.013 368.386C228.567 363.133 228.139 358.393 228.125 355.691C228.103 352.284 228.089 347.733 228.082 342.519C228.075 336.303 228.075 329.147 228.079 321.855C234.575 321.834 241.418 321.559 248.553 321.035L248.948 341.004L249.369 362.099C249.383 362.712 249.736 363.265 250.286 363.536L275.894 376.084C276.982 376.619 278.251 375.828 278.251 374.616V317.646C284.912 316.634 291.737 315.436 298.693 314.057Z" fill="white" stroke="white" stroke-miterlimit="10"/>
<path d="M445.276 281.169C438.943 284.434 432.315 287.642 425.422 290.781C415.823 295.147 405.711 299.374 395.16 303.412C388.514 305.957 381.696 308.427 374.718 310.807C366.399 313.644 357.856 316.356 349.127 318.922C347.993 319.254 346.863 319.585 345.733 319.91C339.104 321.816 332.525 323.595 326.014 325.241C316.733 327.583 307.583 329.664 298.619 331.478C291.688 332.886 284.866 334.133 278.177 335.22C268.083 336.867 258.288 338.154 248.878 339.084C241.686 339.797 234.719 340.303 228.008 340.598C177.286 342.858 141.262 333.342 135.133 312.504C125.951 281.291 172.982 235.387 262.01 203.236C187.983 230.896 151.827 269.415 159.529 295.607C164.314 311.869 190.419 320.07 228.008 319.931C234.505 319.91 241.347 319.635 248.479 319.111C257.906 318.423 267.844 317.294 278.177 315.726C284.838 314.713 291.663 313.516 298.619 312.137C313.42 309.2 328.821 305.433 344.513 300.821C354.914 297.763 365.009 294.467 374.718 290.977C381.742 288.458 388.564 285.835 395.16 283.13C406.053 278.664 416.323 273.977 425.85 269.155C427.08 268.532 428.296 267.908 429.498 267.281C475.552 243.313 503.101 216.284 497.246 196.379C493.202 182.626 473.915 174.639 445.329 172.583C445.333 171.492 445.333 170.416 445.329 169.357C489.355 169.119 519.995 178.709 525.6 197.776C532.5 221.234 499.763 253.128 445.276 281.169Z" fill="#F6921E"/>
<path d="M445.404 171.656C445.415 194.59 445.347 224.331 445.333 230.59C445.333 231.299 444.873 231.922 444.199 232.14L428.078 237.322C427.033 237.657 425.964 236.894 425.939 235.796L424.655 171.175L424.616 169.207L424.113 143.946C424.102 143.333 423.749 142.781 423.197 142.51L397.592 129.961C396.504 129.427 395.231 130.218 395.231 131.43V246.681C395.231 247.39 394.775 248.021 394.097 248.238L383.636 251.599L376.928 253.752C375.873 254.094 374.789 253.306 374.789 252.194V93.0778C374.789 91.7983 376.19 91.0178 377.281 91.6843C396.176 103.231 415.702 113.824 433.783 126.597C436.04 128.193 439.774 131.882 442.469 137.659C444.915 142.913 445.343 147.653 445.361 150.354C445.39 154.791 445.4 161.171 445.404 168.427C445.407 169.485 445.407 170.562 445.404 171.656Z" fill="white" stroke="white" stroke-miterlimit="10"/>
<path d="M1125.78 312.988C959.895 312.988 794.005 312.988 628.119 312.988C626.828 312.988 625.53 313.067 624.25 312.953C620.984 312.657 619.134 310.725 618.97 307.432C618.88 305.636 618.891 303.825 618.966 302.025C619.091 298.95 620.892 296.997 623.908 296.576C624.543 296.487 625.195 296.508 625.841 296.501C627.131 296.491 628.422 296.494 629.709 296.494C960.323 296.494 1290.94 296.494 1621.55 296.494C1623.1 296.494 1624.65 296.516 1626.2 296.498C1627.81 296.484 1629.23 297.04 1630.52 297.963C1631.73 298.832 1632.53 299.962 1632.54 301.505C1632.56 303.693 1632.62 305.885 1632.51 308.07C1632.42 310.037 1631.35 311.427 1629.5 312.186C1628.3 312.678 1627.1 313.063 1625.77 312.999C1624.48 312.938 1623.19 312.988 1621.9 312.988C1456.53 312.988 1291.15 312.988 1125.78 312.988Z" fill="white"/>
<path d="M967.968 364.095C967.9 364.833 967.9 365.603 967.75 366.344C966.859 370.752 965.903 375.147 965.029 379.555C964.356 382.966 962.619 385.746 960.191 388.159C959.264 389.078 958.198 389.688 956.96 390.18C953.17 391.68 949.219 392.143 945.211 392.15C927.411 392.19 909.612 392.186 891.812 392.147C888.581 392.14 885.397 391.676 882.323 390.572C878.177 389.078 876.283 385.938 875.855 381.797C875.656 379.887 875.848 377.969 876.237 376.045C877.642 369.109 879.346 362.242 880.573 355.26C881.753 348.553 886.025 344.347 892.717 342.783C894.85 342.284 897.028 342.055 899.239 342.055C917.813 342.077 936.386 342.08 954.96 342.048C957.181 342.045 959.339 342.376 961.453 342.943C967.262 344.497 970.72 348.966 970.107 355.321C970.082 355.577 970.064 355.837 970.007 356.087C968.624 362.113 969.854 361.187 964.131 361.237C958.715 361.283 953.295 361.262 947.878 361.237C945.971 361.23 945.971 361.187 945.536 359.18C945.243 357.822 944.88 357.409 943.568 357.224C942.68 357.099 941.77 357.074 940.872 357.07C930.168 357.06 919.46 357.11 908.756 357.042C904.078 357.013 903.725 357.951 902.954 361.928C902.095 366.347 901.008 370.724 900.045 375.125C899.61 377.121 900.252 378.094 902.199 378.354C903.218 378.49 904.256 378.518 905.286 378.522C915.862 378.533 926.442 378.533 937.017 378.522C938.048 378.522 939.078 378.44 940.105 378.354C941.057 378.272 941.795 377.759 942.394 377.05C942.822 376.544 943.097 375.956 942.961 375.282C942.79 374.409 942.031 374.534 941.439 374.53C936.023 374.509 930.603 374.516 925.186 374.512C924.156 374.512 923.122 374.53 922.092 374.487C921.036 374.445 920.744 374.078 920.965 373.03C921.492 370.51 922.027 367.994 922.619 365.488C923.029 363.749 923.076 363.756 924.987 363.703C925.632 363.685 926.278 363.699 926.923 363.699C939.307 363.699 951.69 363.689 964.07 363.714C965.336 363.71 966.648 363.425 967.968 364.095Z" fill="white"/>
<path d="M1165.5 343.217C1162.88 342.451 1160.24 342.041 1157.51 342.056C1148.49 342.091 1139.46 342.07 1130.43 342.07C1121.15 342.07 1111.87 342.091 1102.58 342.059C1099.45 342.048 1096.36 342.387 1093.48 343.542C1089.56 345.117 1086.17 347.377 1085.01 351.846C1084.55 353.589 1083.92 355.281 1083.52 357.031C1082.35 362.046 1081.22 367.067 1080.16 372.1C1079.7 374.235 1079.39 376.405 1079.12 378.575C1078.91 380.24 1079.02 381.908 1079.33 383.569C1079.89 386.577 1081.54 388.665 1084.31 390.009C1087.64 391.634 1091.2 392.136 1094.82 392.147C1112.87 392.2 1130.93 392.2 1148.98 392.151C1152.99 392.136 1156.92 391.498 1160.68 389.959C1161.9 389.453 1162.93 388.783 1163.79 387.774C1166.02 385.19 1167.66 382.31 1168.35 378.964C1169.7 372.552 1170.93 366.119 1172.31 359.719C1172.74 357.694 1172.99 355.681 1173.1 353.621C1173.38 348.446 1169.57 344.401 1165.5 343.217ZM1148.07 362.997C1147.35 366.515 1146.54 370.015 1145.73 373.515C1145.27 375.468 1144.54 376.041 1142.52 376.184C1141.75 376.237 1140.97 376.209 1140.2 376.209C1129.65 376.213 1119.08 376.213 1108.52 376.209C1107.75 376.209 1106.97 376.241 1106.2 376.188C1104.16 376.049 1103.54 375.293 1103.69 373.187C1103.72 372.802 1103.77 372.417 1103.85 372.043C1104.67 368.276 1105.53 364.516 1106.31 360.741C1106.65 359.109 1107.61 358.289 1109.21 358.168C1110.37 358.083 1111.53 358.019 1112.68 358.015C1117.71 358.001 1122.73 358.008 1127.75 358.008C1133.15 358.011 1138.57 357.969 1143.97 358.022C1148.5 358.068 1148.97 358.642 1148.07 362.997Z" fill="white"/>
<path d="M1070.07 352.045C1069.98 347.733 1067.8 344.796 1063.75 343.292C1061.05 342.291 1058.26 342.052 1055.39 342.056C1034.12 342.077 1012.85 342.066 991.57 342.07C990.668 342.07 989.763 342.074 988.861 342.084C987.976 342.098 987.416 342.544 987.217 343.403C986.696 345.662 986.151 347.911 985.683 350.178C984.061 358.115 982.503 366.066 980.856 373.999C979.732 379.413 978.488 384.805 977.336 390.215C977.026 391.68 977.393 392.14 978.866 392.147C985.441 392.176 992.016 392.183 998.591 392.154C1000.77 392.144 1000.81 392.047 1001.27 389.741C1001.96 386.338 1002.62 382.927 1003.33 379.531C1003.72 377.738 1003.96 377.481 1005.56 377.471C1012.01 377.435 1018.45 377.467 1024.9 377.439C1026.05 377.435 1026.85 377.888 1027.5 378.789C1029 380.881 1030.56 382.934 1032.02 385.051C1033.41 387.065 1034.95 388.957 1036.5 390.853C1037.34 391.894 1038.27 392.183 1039.49 392.179C1046.84 392.158 1054.19 392.169 1061.54 392.158C1061.92 392.158 1062.34 392.158 1062.68 392.005C1063.02 391.855 1063.24 391.481 1063.05 391.074C1062.89 390.732 1062.67 390.411 1062.45 390.109C1059.06 385.618 1055.66 381.131 1051.84 376.081C1054.57 376.095 1056.63 375.778 1058.58 375.154C1063.12 373.697 1066.55 371.016 1067.62 366.063C1068.35 362.673 1069.14 359.295 1069.8 355.891C1070.05 354.636 1070.1 353.325 1070.07 352.045ZM1045.74 358.343C1045.49 359.598 1045.24 360.863 1044.85 362.082C1044.42 363.422 1043.46 364.216 1042 364.281C1041.35 364.313 1040.71 364.313 1040.07 364.313C1030.14 364.313 1020.22 364.316 1010.3 364.309C1009.52 364.309 1008.75 364.313 1007.98 364.234C1007.41 364.181 1007 363.75 1007.07 363.208C1007.34 361.044 1007.67 358.885 1008.02 356.729C1008.12 356.133 1008.64 355.934 1009.17 355.909C1010.33 355.862 1011.49 355.848 1012.65 355.845C1017.29 355.841 1021.93 355.845 1026.56 355.845C1031.46 355.845 1036.36 355.841 1041.26 355.848C1042.16 355.848 1043.07 355.823 1043.96 355.937C1045.35 356.119 1046.01 357.024 1045.74 358.343Z" fill="white"/>
<path d="M1369.63 343.781C1368.59 343.275 1367.52 342.872 1366.37 342.626C1364.34 342.195 1362.3 342.06 1360.23 342.063C1349.54 342.074 1338.85 342.067 1328.16 342.067H1312.69C1307.03 342.067 1301.36 342.06 1295.69 342.07C1292.35 342.077 1292.04 341.682 1291.38 345.378C1290.58 349.929 1289.64 354.462 1288.71 358.995C1286.6 369.317 1284.46 379.638 1282.33 389.956C1281.96 391.745 1282.21 392.147 1283.88 392.155C1290.46 392.183 1297.02 392.183 1303.6 392.151C1305.26 392.144 1305.52 391.926 1305.95 390.212C1306.59 387.593 1307.09 384.934 1307.73 382.314C1308.53 379.021 1307.91 379.15 1311.72 379.15C1325.63 379.15 1339.54 379.153 1353.46 379.146C1354.87 379.146 1356.29 379.064 1357.7 379.075C1360.6 379.093 1363.26 378.091 1365.95 377.211C1366.94 376.883 1367.77 376.277 1368.39 375.404C1369.98 373.209 1371.43 370.974 1372.11 368.283C1373.23 363.924 1374.1 359.519 1374.76 355.072C1374.89 354.188 1374.92 353.279 1374.95 352.381C1375.08 348.35 1373.23 345.513 1369.63 343.781ZM1350.05 361.533C1349.43 364.89 1348.91 365.368 1345.47 365.379C1334.79 365.418 1324.1 365.393 1313.42 365.389C1313.04 365.389 1312.65 365.389 1312.27 365.314C1311.69 365.2 1311.38 364.762 1311.46 364.22C1311.77 362.321 1312.09 360.414 1312.5 358.539C1312.92 356.704 1313.03 356.64 1315.19 356.633C1320.6 356.608 1326 356.622 1331.4 356.622C1336.42 356.622 1341.44 356.615 1346.46 356.629C1347.35 356.629 1348.26 356.654 1349.15 356.768C1349.86 356.861 1350.32 357.417 1350.32 358.09C1350.32 359.238 1350.26 360.403 1350.05 361.533Z" fill="white"/>
<path d="M1277.38 342.067C1276.28 347.135 1275.42 351.664 1274.29 356.123C1272.7 362.356 1271.87 368.732 1270.51 375.008C1269.73 378.658 1268.81 382.222 1266.83 385.486C1265.57 387.561 1264.03 389.075 1261.79 390.023C1258.16 391.563 1254.33 392.115 1250.47 392.133C1233.07 392.211 1215.67 392.197 1198.27 392.14C1195.04 392.13 1191.87 391.559 1188.83 390.337C1185.06 388.822 1183.22 385.928 1182.77 382.09C1182.54 380.187 1182.64 378.259 1183.08 376.341C1184.36 370.696 1185.56 365.036 1186.74 359.366C1187.68 354.833 1188.53 350.285 1189.42 345.741C1189.52 345.235 1189.62 344.732 1189.75 344.234C1190.26 342.216 1190.35 342.141 1192.29 342.067C1192.67 342.052 1193.06 342.063 1193.45 342.063C1199.12 342.063 1204.79 342.059 1210.46 342.07C1211.23 342.07 1212.01 342.084 1212.76 342.234C1213.03 342.291 1213.41 342.73 1213.44 343.022C1213.49 343.645 1213.4 344.298 1213.28 344.918C1211.57 353.361 1209.83 361.8 1208.12 370.243C1207.91 371.248 1207.7 372.26 1207.64 373.28C1207.57 374.47 1208.19 375.211 1209.42 375.397C1210.43 375.55 1211.47 375.596 1212.49 375.596C1222.16 375.611 1231.83 375.603 1241.5 375.603C1242.14 375.603 1242.79 375.625 1243.43 375.575C1246.33 375.361 1246.87 374.912 1247.42 371.936C1249.19 362.46 1251.46 353.094 1253.59 343.695C1253.91 342.248 1254.04 342.092 1255.7 342.081C1260.73 342.045 1265.76 342.063 1270.78 342.063C1272.82 342.067 1274.86 342.067 1277.38 342.067Z" fill="white"/>
<path d="M1124.77 313.148C958.697 313.148 792.622 313.127 626.55 313.234C620.125 313.237 618.649 310.55 618.698 305.589C618.773 298.083 620.317 296.088 626.582 296.02C628.404 295.998 630.223 296.016 632.045 296.016C962.759 296.016 1293.48 296.016 1624.19 296.016C1632.2 296.016 1636.29 302.716 1632.67 309.873C1631.11 312.959 1628.3 313.444 1625.27 313.415C1623.47 313.398 1621.67 313.159 1619.86 313.159C1454.83 313.148 1289.8 313.148 1124.77 313.148Z" fill="#F6921E"/>
<path d="M1631.04 178.06L1626.4 208.514C1623.14 229.866 1616.06 244.859 1605.15 253.506C1594.24 262.148 1576.48 266.471 1551.89 266.471H1528.44C1507.43 266.471 1492.49 263.36 1483.62 257.137C1474.74 250.918 1470.3 240.408 1470.3 225.603C1470.3 220.496 1470.79 214.798 1471.77 208.511L1476.41 178.057C1479.67 156.709 1486.75 141.711 1497.66 133.065C1508.57 124.419 1526.24 120.1 1550.67 120.1H1574.12C1594.97 120.1 1609.91 123.211 1618.95 129.43C1627.99 135.653 1632.5 146.099 1632.5 160.768C1632.51 166.014 1632.02 171.773 1631.04 178.06ZM1586.83 181.204C1587.32 177.012 1587.68 174.033 1587.93 172.265C1588.17 170.498 1588.29 168.762 1588.29 167.058C1588.29 160.643 1586.46 156.288 1582.8 153.993C1579.13 151.701 1572.25 150.554 1562.16 150.554H1553.36C1540.82 150.554 1532.56 152.489 1528.57 156.349C1524.58 160.212 1521.61 168.498 1519.65 181.2L1515.99 205.563C1515.01 211.33 1514.52 216.109 1514.52 219.905C1514.52 226.063 1516.36 230.286 1520.02 232.578C1523.68 234.87 1530.48 236.017 1540.41 236.017H1549.21C1561.91 236.017 1570.25 234.086 1574.24 230.222C1578.23 226.359 1581.2 218.14 1583.16 205.567L1586.83 181.204Z" fill="white"/>
<path d="M769.708 121.725L752.953 221.633C747.908 251.527 727.73 266.475 692.422 266.475H668.101C650.443 266.475 637.564 264.051 629.459 259.197C621.351 254.347 617.297 246.349 617.297 235.205C617.297 233.633 617.432 231.762 617.703 229.598C617.974 227.435 618.199 225.699 618.377 224.388L621.618 205.706H667.559C667.559 205.706 664.942 222.699 664.567 226.441C664.464 227.485 664.585 222.617 664.585 223.796C664.585 224.976 664.585 225.764 664.585 226.156C664.585 232.713 668.996 235.989 677.828 235.989H687.288C693.05 235.989 697.286 234.809 699.989 232.45C702.691 230.09 704.489 226.092 705.394 220.453L721.878 121.725H769.708Z" fill="white"/>
<path d="M918.741 266.378L874.655 266.15L870.472 245.479L807.563 245.936L794.922 266.446L750.369 266.468L831.11 122.812L885.787 122.776L918.741 266.378ZM865.052 214.655L853.261 162.778L829.435 214.68L865.052 214.655Z" fill="white"/>
<path d="M1076.32 122.131L1007.53 266.475H941.354L916.447 122.131H960.33L979.207 214.17L1032.68 122.131H1076.32Z" fill="white"/>
<path d="M1135.18 122.854L1112.05 266.471H1066.05L1089.18 122.854H1135.18Z" fill="white"/>
<path d="M1459.91 179.033L1455.4 209.109C1452.23 230.357 1445.42 245.23 1434.96 253.726C1424.51 262.226 1407.32 266.474 1383.4 266.474H1297.87L1319.01 121.671H1404.55C1424.83 121.671 1439.36 124.757 1448.15 130.934C1456.94 137.106 1461.34 147.499 1461.34 162.104C1461.34 167.151 1460.86 172.792 1459.91 179.033ZM1416.91 181.82C1417.86 175.978 1418.33 171.131 1418.33 167.279C1418.33 160.907 1416.55 156.558 1412.99 154.231C1409.42 151.911 1402.81 150.746 1393.15 150.746H1356.32L1343.72 237.389H1380.55C1392.75 237.389 1400.79 235.432 1404.67 231.512C1408.55 227.595 1411.44 219.199 1413.34 206.315L1416.91 181.82Z" fill="white"/>
<path d="M1294.19 179.033L1289.68 209.109C1286.51 230.357 1279.7 245.23 1269.25 253.726C1258.79 262.226 1241.6 266.474 1217.69 266.474H1132.15L1153.3 121.671H1238.83C1259.11 121.671 1273.64 124.757 1282.43 130.934C1291.23 137.106 1295.62 147.499 1295.62 162.104C1295.62 167.151 1295.14 172.792 1294.19 179.033ZM1251.19 181.82C1252.14 175.978 1252.61 171.131 1252.61 167.279C1252.61 160.907 1250.83 156.558 1247.27 154.231C1243.7 151.911 1237.09 150.746 1227.43 150.746H1190.6L1178 237.389H1214.83C1227.03 237.389 1235.07 235.432 1238.95 231.512C1242.83 227.595 1245.72 219.199 1247.62 206.315L1251.19 181.82Z" fill="white"/>
</svg>
