<svg width="512" height="512" viewBox="0 0 512 512" fill="none" xmlns="http://www.w3.org/2000/svg">
<rect width="512" height="512" rx="63" fill="black"/>
<path d="M216.604 281.694C216.604 282.526 216.049 283.289 215.252 283.566L194.103 290.535C194.103 290.535 193.826 290.604 193.687 290.639C192.578 290.743 191.538 289.876 191.538 288.697L191.053 191.727V191.449L190.636 106.474C190.636 105.053 189.18 104.117 187.898 104.671L134.645 127.761C133.362 128.316 131.906 127.38 131.906 125.959V109.49C131.906 108.797 132.253 108.173 132.842 107.826L212.894 58.1102C214.212 57.3128 215.876 58.2489 215.876 59.7744L216.292 182.851V182.921L216.5 248.134L216.604 281.729V281.694Z" fill="#ECECEC"/>
<path d="M273.607 265.677L253.047 272.299C252.111 272.611 251.141 271.918 251.141 270.912L250.69 172.763L250.17 56.4117C250.17 51.2806 253.256 46.5309 258.075 44.7627C259.392 44.2773 260.813 44 262.304 44C264.419 44 266.395 44.52 268.163 45.4908C272.081 47.6056 274.439 51.8353 274.439 56.3077C274.473 93.1267 274.508 129.946 274.543 166.765V166.903C274.543 199.354 274.612 231.84 274.647 264.29C274.647 264.914 274.231 265.504 273.641 265.677H273.607Z" fill="#EF8C22"/>
<path d="M250.17 455.84C250.135 462.531 255.024 468.113 261.299 468.46C261.611 468.46 261.958 468.46 262.27 468.46C262.755 468.46 263.275 468.46 263.761 468.39C269.793 467.905 274.404 462.392 274.439 455.909C274.508 413.127 274.577 370.31 274.647 327.528C274.647 321.565 270.729 316.434 265.251 315.22C257.971 313.625 251.141 319.519 251.072 327.424L250.205 455.805L250.17 455.84Z" fill="#EF8C22"/>
<path d="M393.841 375.511C393.841 378.735 393.321 384.421 390.374 390.731C387.15 397.665 382.677 402.068 379.973 403.974C358.304 419.264 334.937 431.953 312.298 445.821C310.98 446.618 309.316 445.682 309.316 444.156V300.313C317.741 297.296 325.888 294.141 333.793 290.917V398.219C333.793 399.675 335.319 400.612 336.636 399.987L367.284 384.941C367.943 384.629 368.359 383.97 368.393 383.207L370.057 300.07L370.578 274.172V273.201C370.612 271.884 371.93 270.982 373.178 271.364L374.946 271.918L392.454 277.569C393.251 277.847 393.806 278.575 393.806 279.441C393.806 281.175 393.806 284.365 393.806 288.594C393.841 309.777 393.945 356.928 393.806 375.58L393.841 375.511Z" fill="#ECECEC"/>
<path d="M218.206 325.622V444.122C218.206 445.648 216.541 446.584 215.224 445.786C192.585 431.953 169.217 419.264 147.549 403.94C144.845 402.033 140.372 397.596 137.148 390.696C134.236 384.386 133.716 378.735 133.681 375.476C133.681 371.385 133.646 365.942 133.646 359.702C133.646 352.248 133.646 343.684 133.646 334.948C141.412 334.948 149.629 334.601 158.158 333.977L158.643 357.899L159.163 383.173C159.163 383.901 159.614 384.56 160.273 384.907L190.955 399.953C192.273 400.577 193.764 399.641 193.764 398.185V329.921C201.738 328.707 209.92 327.286 218.24 325.622H218.206Z" fill="#ECECEC"/>
<path d="M393.736 286.202C386.143 290.12 378.204 293.968 369.952 297.712C358.442 302.947 346.342 308.009 333.723 312.828C325.749 315.879 317.601 318.826 309.246 321.704C299.296 325.101 289.068 328.36 278.598 331.411C277.246 331.792 275.894 332.208 274.542 332.59C266.602 334.878 258.732 336.993 250.932 338.969C239.803 341.777 228.847 344.273 218.134 346.458C209.848 348.156 201.666 349.647 193.658 350.93C181.558 352.906 169.84 354.432 158.572 355.576C149.974 356.442 141.619 357.032 133.575 357.378C72.8344 360.083 29.7055 348.676 22.3556 323.714C11.3653 286.306 67.6686 231.32 174.277 192.802C85.6274 225.946 42.3252 272.091 51.5473 303.467C57.2677 322.952 88.5396 332.763 133.541 332.624C141.307 332.624 149.523 332.278 158.052 331.654C169.354 330.822 181.246 329.469 193.623 327.597C201.597 326.384 209.779 324.962 218.1 323.298C235.816 319.797 254.26 315.255 273.051 309.743C285.497 306.068 297.597 302.115 309.211 297.955C317.636 294.939 325.783 291.784 333.688 288.559C346.724 283.22 359.031 277.604 370.438 271.814C371.894 271.051 373.35 270.323 374.806 269.561C429.965 240.854 462.936 208.473 455.933 184.62C451.079 168.152 427.989 158.583 393.77 156.122C393.77 154.804 393.77 153.522 393.77 152.273C446.503 151.996 483.183 163.472 489.909 186.319C498.16 214.436 458.984 252.642 393.736 286.237V286.202Z" fill="#EF8C22"/>
<path d="M393.875 155.012C393.875 182.505 393.806 218.111 393.806 225.634C393.806 226.501 393.251 227.229 392.454 227.506L373.143 233.712C371.895 234.128 370.612 233.192 370.578 231.874L369.052 154.457V152.1L368.393 121.833C368.393 121.105 367.943 120.447 367.284 120.1L336.636 105.053C335.319 104.429 333.793 105.365 333.793 106.821V244.91C333.793 245.777 333.238 246.505 332.441 246.782L319.925 250.804L311.882 253.37C310.634 253.786 309.316 252.849 309.316 251.497V60.8496C309.316 59.3241 310.98 58.388 312.298 59.1854C334.937 73.0186 358.304 85.7076 379.973 101.032C382.677 102.938 387.15 107.376 390.374 114.275C393.286 120.585 393.806 126.236 393.841 129.495C393.841 134.8 393.875 142.462 393.875 151.164C393.875 152.446 393.875 153.729 393.875 155.047V155.012Z" fill="#ECECEC"/>
</svg>
