<svg width="512" height="512" viewBox="0 0 512 512" fill="none" xmlns="http://www.w3.org/2000/svg">
<g clip-path="url(#clip0_5977_64)">
<path d="M442.182 0H69.8182C31.2587 0 0 31.2587 0 69.8182V442.182C0 480.741 31.2587 512 69.8182 512H442.182C480.741 512 512 480.741 512 442.182V69.8182C512 31.2587 480.741 0 442.182 0Z" fill="#29A71A"/>
<path d="M368.872 143.128C342.238 116.227 306.867 99.7301 269.14 96.612C231.413 93.4938 193.814 103.96 163.124 126.122C132.434 148.285 110.675 180.685 101.769 217.478C92.8645 254.271 97.4005 293.035 114.559 326.779L97.7158 408.553C97.5411 409.367 97.5361 410.208 97.7013 411.024C97.8665 411.84 98.1982 412.613 98.6758 413.295C99.3755 414.33 100.374 415.126 101.539 415.579C102.703 416.031 103.978 416.117 105.192 415.826L185.338 396.83C218.986 413.554 257.477 417.798 293.961 408.807C330.445 399.816 362.556 378.173 384.58 347.729C406.604 317.285 417.113 280.014 414.237 242.548C411.36 205.083 395.286 169.853 368.872 143.128ZM343.883 342.575C325.455 360.952 301.724 373.082 276.036 377.258C250.348 381.433 223.997 377.442 200.698 365.848L189.527 360.32L140.392 371.957L140.538 371.346L150.719 321.891L145.25 311.099C133.345 287.717 129.146 261.168 133.253 235.254C137.36 209.34 149.564 185.391 168.116 166.837C191.427 143.533 223.038 130.442 255.999 130.442C288.961 130.442 320.572 143.533 343.883 166.837C344.082 167.064 344.295 167.278 344.523 167.477C367.545 190.84 380.397 222.358 380.277 255.158C380.157 287.958 367.075 319.38 343.883 342.575Z" fill="white"/>
<path d="M339.519 306.298C333.497 315.782 323.984 327.389 312.028 330.269C291.082 335.331 258.937 330.444 218.937 293.149L218.442 292.713C183.271 260.102 174.137 232.96 176.348 211.433C177.57 199.215 187.751 188.16 196.333 180.946C197.69 179.788 199.299 178.963 201.031 178.538C202.764 178.113 204.571 178.099 206.31 178.498C208.049 178.897 209.67 179.697 211.044 180.834C212.418 181.971 213.507 183.414 214.224 185.047L227.17 214.138C228.011 216.025 228.323 218.104 228.071 220.154C227.82 222.204 227.016 224.147 225.744 225.775L219.199 234.269C217.794 236.023 216.947 238.157 216.765 240.397C216.584 242.637 217.077 244.879 218.181 246.837C221.846 253.266 230.631 262.72 240.377 271.477C251.315 281.367 263.446 290.415 271.126 293.498C273.181 294.338 275.44 294.543 277.613 294.086C279.785 293.63 281.771 292.534 283.315 290.938L290.908 283.287C292.373 281.843 294.195 280.812 296.188 280.301C298.181 279.79 300.274 279.817 302.253 280.378L333.002 289.106C334.699 289.626 336.253 290.527 337.548 291.741C338.842 292.954 339.842 294.447 340.471 296.106C341.1 297.765 341.341 299.546 341.176 301.313C341.011 303.079 340.444 304.784 339.519 306.298Z" fill="white"/>
</g>
<defs>
<clipPath id="clip0_5977_64">
<rect width="512" height="512" fill="white"/>
</clipPath>
</defs>
</svg>
